<svg width="155" height="30" viewBox="0 0 155 30" fill="none" xmlns="http://www.w3.org/2000/svg">
<path fill-rule="evenodd" clip-rule="evenodd" d="M62.4146 5.99648C61.4821 5.42818 60.3671 5.14404 59.0697 5.14404C57.6709 5.14404 56.4191 5.48207 55.3143 6.15815C54.2094 6.83422 53.3377 7.80423 52.6991 9.0682C52.0606 10.3322 51.7413 11.8264 51.7413 13.5509C51.7413 15.2558 52.0606 16.7451 52.6991 18.0188C53.3377 19.2926 54.2094 20.2675 55.3143 20.9436C56.4191 21.6197 57.6709 21.9577 59.0697 21.9577C60.3671 21.9577 61.4821 21.6735 62.4146 21.1052C63.3471 20.537 64.0262 19.7629 64.4519 18.7831V21.7519H69.6517V0H64.4519V8.31864C64.0262 7.33882 63.3471 6.56477 62.4146 5.99648ZM5.40661 20.9596V13.9575H8.75808C10.5076 13.9575 11.9936 13.6799 13.2162 13.1246C14.4387 12.5693 15.3609 11.807 15.9827 10.8376C16.6045 9.86826 16.9154 8.76243 16.9154 7.52012C16.9154 5.5249 16.2198 3.9391 14.8287 2.76267C13.4375 1.58624 11.414 0.99804 8.75808 0.99804H0V20.9596H5.40661ZM10.9453 7.51266C10.9453 9.15805 9.86647 9.98073 7.70883 9.98073H4.97513V4.99035H7.70883C9.86647 4.99035 10.9453 5.83111 10.9453 7.51266ZM24.0615 8.13323C24.7047 7.17054 25.5339 6.40606 26.5491 5.83977C27.5642 5.27349 28.6647 4.99035 29.8507 4.99035V10.1718H28.3733C27.0064 10.1718 25.946 10.4456 25.1922 10.993C24.4384 11.5404 24.0615 12.4653 24.0615 13.7678V20.9596H18.9055V5.16023H24.0615V8.13323ZM45.4051 5.95352C44.0543 5.3114 42.5231 4.99035 40.8115 4.99035C39.0998 4.99035 37.5635 5.3114 36.2024 5.95352C34.8413 6.59565 33.7741 7.52159 33.0008 8.73139C32.2275 9.94118 31.8408 11.3557 31.8408 12.975C31.8408 14.5942 32.2275 16.0087 33.0008 17.2185C33.7741 18.4283 34.8413 19.3543 36.2024 19.9964C37.5635 20.6385 39.0998 20.9596 40.8115 20.9596C42.5231 20.9596 44.0543 20.6385 45.4051 19.9964C46.7559 19.3543 47.8179 18.4283 48.5912 17.2185C49.3646 16.0087 49.7512 14.5942 49.7512 12.975C49.7512 11.3557 49.3646 9.94118 48.5912 8.73139C47.8179 7.52159 46.7559 6.59565 45.4051 5.95352ZM41.3086 8.98265C40.3236 8.98265 39.4944 9.32623 38.821 10.0134C38.1476 10.7006 37.8109 11.6926 37.8109 12.9895C37.8109 14.2864 38.1476 15.2736 38.821 15.951C39.4944 16.6285 40.3236 16.9673 41.3086 16.9673C42.2936 16.9673 43.1177 16.6285 43.7811 15.951C44.4444 15.2736 44.7761 14.2864 44.7761 12.9895C44.7761 11.6926 44.4444 10.7006 43.7811 10.0134C43.1177 9.32623 42.2936 8.98265 41.3086 8.98265ZM61.6753 8.98265C60.484 8.98265 59.5255 9.33491 58.7999 10.0394C58.0743 10.744 57.7115 11.7225 57.7115 12.975C57.7115 14.2275 58.0743 15.206 58.7999 15.9105C59.5255 16.615 60.484 16.9673 61.6753 16.9673C62.845 16.9673 63.8034 16.6052 64.5507 15.8811C65.298 15.157 65.6717 14.1883 65.6717 12.975C65.6717 11.742 65.298 10.7684 64.5507 10.0541C63.8034 9.3398 62.845 8.98265 61.6753 8.98265ZM91.5423 20.7897V4.99035H86.0705V13.3714C86.0705 14.5228 85.7524 15.41 85.1161 16.0329C84.4799 16.6558 83.6103 16.9673 82.5075 16.9673C81.4471 16.9673 80.604 16.67 79.9784 16.0754C79.3528 15.4808 79.0399 14.6455 79.0399 13.5696V4.99035H73.6318V14.1642C73.6318 16.2783 74.2309 17.9394 75.4292 19.1475C76.6275 20.3555 78.2446 20.9596 80.2806 20.9596C81.6168 20.9596 82.7885 20.6859 83.7959 20.1385C84.8033 19.591 85.5615 18.8549 86.0705 17.9299V20.7897H91.5423ZM103.107 4.99035C105.306 4.99035 107.148 5.54405 108.634 6.65148C110.12 7.75891 111.056 9.28044 111.443 11.2161H105.916C105.753 10.5461 105.418 10.0249 104.909 9.65269C104.4 9.28044 103.759 9.09433 102.985 9.09433C102.069 9.09433 101.316 9.42469 100.726 10.0854C100.135 10.7462 99.8402 11.7093 99.8402 12.975C99.8402 14.2406 100.135 15.2038 100.726 15.8645C101.316 16.5252 102.069 16.8556 102.985 16.8556C103.759 16.8556 104.4 16.6695 104.909 16.2972C105.418 15.925 105.753 15.4038 105.916 14.7338H111.443C111.056 16.6695 110.12 18.191 108.634 19.2984C107.148 20.4059 105.306 20.9596 103.107 20.9596C101.438 20.9596 99.9572 20.6385 98.6646 19.9964C97.372 19.3543 96.3594 18.4283 95.6266 17.2185C94.8938 16.0087 94.5274 14.5942 94.5274 12.975C94.5274 11.3371 94.8887 9.91792 95.6113 8.71743C96.3339 7.51694 97.3466 6.59565 98.6494 5.95352C99.9521 5.3114 101.438 4.99035 103.107 4.99035ZM124.378 20.9596V16.7375H122.732C122.081 16.7375 121.619 16.613 121.345 16.3641C121.07 16.1152 120.933 15.6748 120.933 15.0429V9.06882H124.348V4.9329H120.933V0.99804H115.719V4.9329H113.433V9.06882H115.719V14.9568C115.719 17.1013 116.273 18.6379 117.381 19.5666C118.489 20.4952 120.039 20.9596 122.031 20.9596H124.378ZM132.338 0V20.9596H127.363V0H132.338ZM144.45 15.0554L140.277 5.1134H134.328L141.616 20.7241L137.536 29.0672H143.391L154.229 5.1134H148.343L144.45 15.0554Z" fill="#173A56"/>
</svg>
